<?xml version="1.0" encoding="UTF-8"?><svg id="_レイヤー_2" xmlns="http://www.w3.org/2000/svg" viewBox="0 0 195.15 35"><defs><style>.cls-1{fill:#fcfcfc;stroke-width:0px;}</style></defs><g id="_レイヤー_1-2"><path class="cls-1" d="m190.93,24.6c.7,0,1.2.6,1.1,1.3l-.3,1.5c-.1.7-.8,1.3-1.6,1.3h-1.1c-.7,0-1.2-.6-1.1-1.3l.3-1.5c.1-.7.8-1.3,1.5-1.3h1.2Zm.4-16.6c.1-.7.8-1.3,1.5-1.3h1.2c.7,0,1.2.6,1.1,1.3l-2.4,13.4c-.1.7-.8,1.3-1.5,1.3h-1.2c-.7,0-1.2-.6-1.1-1.3l2.4-13.4Z"/><path class="cls-1" d="m70.23,23.1c0-.4-.1-.8-.1-1v.5c0,.1.1.3.1.5Zm.2.5c-.1-.2-.2-.4-.2-.5v.2q0-.1.2.3Z"/><path class="cls-1" d="m48.83,6.6c.7,0,1.5.5,1.8,1.2l2.6,6.4c.3.7.9.8,1.3.2l6-6.9c.5-.5,1.5-1,2.2-1h3c.7,0,1.2.6,1.1,1.3l-3.4,19.5c-.1.7-.8,1.3-1.5,1.3h-1.6c-.7,0-1.2-.6-1.1-1.3l2.6-13.5c.1-.7-.2-.9-.7-.3l-6,6.2c-.5.5-1.5.9-2.2.9h-.6c-.7,0-1.5-.5-1.8-1.2l-2.4-5.6c-.3-.7-.6-.6-.7.1l-2.2,13.4c-.1.7-.8,1.3-1.5,1.3h-1.6c-.7,0-1.2-.6-1.1-1.3l3.4-19.4c.1-.7.8-1.3,1.5-1.3,0,0,2.9,0,2.9,0Zm60.6,5.5c.7,0,1.2.6,1.1,1.3l-2.5,13.9c-.1.7-.8,1.3-1.5,1.3h-1.1c-.7,0-1.2-.6-1.1-1.3l2.5-13.9c.1-.7.8-1.3,1.5-1.3,0,0,1.1,0,1.1,0Zm-1.7-4.2c.1-.7.8-1.3,1.5-1.3h1.1c.7,0,1.2.6,1.1,1.3l-.1,1.1c-.1.7-.8,1.3-1.5,1.3h-1.1c-.7,0-1.2-.6-1.1-1.3,0,0,.1-1.1.1-1.1Zm-24,12.1v.2-.2Zm-1.4-5.7l-.2-.3c-.1-.1-.2-.2-.2-.3-1.2-1.3-2.9-2-5.3-2.1-3.1.2-5.6,1.3-7.4,3.4-1.9,2.2-2.8,4.4-2.8,6.7,0,1.7.5,3.3,1.6,4.9s3,2.4,5.6,2.5c2.1-.1,4-.6,5.6-1.7.1-.1.2-.2.3-.2,1.4-1.1,2.4-2.6,2.4-2.6.4-.6.2-1.1-.6-1.1h-1.5c-.6,0-1.5.3-2.1.8l-.2.1h-.1c-.3.3-.7.5-1.1.6-.7.3-1.5.5-2.4.5-.6,0-1.2-.1-1.7-.3-.5-.2-.9-.4-1.2-.7-.3-.3-.6-.6-.7-.9l-.2-.4v-.2l-.1-.6v-.9h12c.7,0,1.4-.6,1.5-1.3v-.2l.2-1.3c.2-1.5-.4-3-1.4-4.4h0Zm-10.2,4.2c-.7,0-1-.5-.6-1.1,0,0,.5-.8,1.4-1.4s2-.9,3.2-1c1.1,0,2,.4,2.7,1,.3.3.6.7.7,1,0,.1.1.2.1.2.2.7-.3,1.3-1,1.3,0,0-6.5,0-6.5,0Zm31.9-11.9h-1.1c-.7,0-1.4.6-1.5,1.3l-.1.8-.6,3.3c-.1.7-.7.9-1.2.4,0,0-.2-.2-.9-.5-.2-.1-.4-.1-.5-.2-.2-.1-.4-.1-.5-.1h-.2c-.4-.1-.8-.1-1.3-.1-3.2.1-5.8,1.2-7.7,3.3-1.9,2.1-2.9,4.4-2.9,6.9,0,1.7.5,3.4,1.6,4.9.1.1.2.2.2.3,1.1,1.3,2.9,2,5.1,2.1.9,0,1.7-.1,2.4-.3.1,0,.2,0,.3-.1l.6-.2c.8-.3,1.2-.5,1.3-.6.1,0,.2-.1.2-.1.5-.3.8-.2.8.1-.1.4.5.7,1.2.7h1.1c.7,0,1.4-.6,1.5-1.3l1.7-9.7,1.7-9.7c0-.6-.5-1.2-1.2-1.2Zm-6.4,16.7c-.1.1-.1.2-.2.2-1,1.1-2.3,1.7-4,1.8-.4,0-.7-.1-1-.1-.3-.1-.6-.2-.8-.3-.5-.2-.9-.6-1.3-1-.3-.4-.6-.8-.7-1.3-.2-.5-.2-1-.2-1.5,0-1.3.6-2.5,1.6-3.7.1-.1.1-.2.2-.2,1-1,2.3-1.6,4-1.7,1.3,0,2.2.4,2.9,1.1l.2.2c.6.8,1,1.8.9,2.8-.1,1.1-.6,2.4-1.6,3.7Z"/><path class="cls-1" d="m129.73,17.3l-.3-.2c-.3-.2-.3-.5-.1-.8.7-.5,1.2-1.1,1.6-1.8l.1-.3c.5-1.1.7-2.1.7-3,0-1.2-.5-2.3-1.4-3.2l-.2-.2c-.9-.8-2.2-1.2-3.9-1.3h-9.8c-.7,0-1.4.6-1.5,1.3l-1.7,9.7-1.7,9.7c-.1.7.4,1.3,1.1,1.3h11.3c2.6-.1,4-.9,5.4-2.6,1.4-1.6,2.1-3.4,2.1-5.3,0-.9-.2-1.8-.7-2.5-.5-.5-.9-.7-1-.8h0Zm-11.4-5.6c.1-.7.8-1.3,1.5-1.3h3.9c.6,0,1.6.1,2.3.2.3.1.5.2.8.4.4.4.7.8.7,1.3,0,.8-.3,1.5-.9,2.2-.6.6-1.3.8-1.3.8-.7.1-1.9.2-2.6.2h-3.7c-.7,0-1.2-.6-1.1-1.3,0,0,.4-2.5.4-2.5Zm-1.1,13.1c-.7,0-1.2-.6-1.1-1.3l.5-2.7.1-.5c.1-.7.8-1.3,1.5-1.3h2.9c.7,0,1.9,0,2.6.1l1.4.2h.4c.2.1.4.1.5.2l.1.1c.5.4.7,1,.7,1.8s-.3,1.6-.9,2.3c-.1.1-.1.2-.2.2l-.1.1h-.1c-.6.4-1.5.6-1.5.6-.7.1-1.9.2-2.6.2,0,0-4.2,0-4.2,0Zm33.4-12.7h-1.1c-.7,0-1.4.4-1.5,1-.1.5-.4.5-.8.2l-.2-.2c0-.1-.3-.4-1-.8l-.2-.1c-.7-.4-1.7-.5-2.9-.5-3.2.2-5.7,1.3-7.4,3.5s-2.6,4.4-2.7,6.7c0,1.8.5,3.5,1.6,5,.1.1.2.2.2.3,1.2,1.3,2.9,1.9,5.4,2,.9,0,1.8-.1,2.5-.3l.3-.1.6-.2c.2-.1.4-.2.5-.2l.5-.3.2-.1c.2-.2.4-.3.5-.5.3-.2.4,0,.4.4-.1.6.4,1.1,1.2,1.1h1.1c.7,0,1.4-.6,1.5-1.3l1.2-7,1.2-7c.1-1-.4-1.6-1.1-1.6Zm-5.8,11.2l-.2.2c-1,1.1-2.3,1.6-3.8,1.7-1.2-.1-2.1-.4-2.8-1.2l-.2-.2c-.7-.9-1-1.8-1-2.7,0-1.4.6-2.7,1.6-3.9.1-.1.1-.2.2-.2,1-1,2.3-1.6,4-1.7,1.2.1,2.1.4,2.7,1.2l.2.2c.7.9,1,1.8,1,2.7-.1,1.4-.6,2.6-1.7,3.9Zm21.6-9.8c-.1-.1-.1-.2-.2-.2-.9-1-2.2-1.5-3.7-1.5-1,0-2,.2-2.8.6l-.6.3c-.2.1-.4.2-.5.3s-.2.1-.2.1l-.3.2c-.4.3-.6.2-.6-.2.1-.5-.4-.9-1.1-.9h-1.1c-.7,0-1.4.6-1.5,1.3l-1.2,6.9-1.2,6.9c-.1.7.4,1.3,1.1,1.3h1.1c.7,0,1.4-.6,1.5-1.3,0,0,.4-2.6.7-4.2,0-.1,0-.2.1-.3l.1-.5c.1-.5.2-.9.3-1.3.1-.6.2-1.2.4-1.6.4-1.4.9-2.4,1.4-2.8.2-.2.4-.4.6-.5.2-.2.4-.3.7-.4.5-.2,1-.4,1.6-.4.8,0,1.5.2,2,.6.2.2.4.5.6.9.1.4.2.8.2,1.4,0,.3,0,.6-.1,1,0,.3-.1.7-.2,1.1-.1.9-.3,1.9-.5,3l-.5,3-.2,1c-.1.7.4,1.3,1.1,1.3h1.2c.7,0,1.4-.5,1.5-1l.1-.7c.1-.7.3-1.4.4-2.2l.4-2.4c.1-.8.3-1.6.4-2.3.1-.7.2-1.4.3-2l.1-.6v-.1c0-.3.1-.6.1-.8-.4-1.1-.8-2.1-1.5-3h0Zm20.2-1.6h-.8c-.7,0-1.4.4-1.5,1-.1.5-.4.5-.8.2-.1-.1-.2-.2-.3-.2l-.1-.1c-.1-.1-.3-.2-.5-.4-.2-.1-.4-.2-.7-.4l-.7-.3h-.1c-.2-.1-.3-.1-.5-.1-.5-.1-1.1-.2-1.7-.2-3.3.1-5.9,1.3-7.6,3.5-1.7,2.1-2.6,4.3-2.6,6.4,0,1.8.5,3.4,1.6,4.9.1.1.2.2.2.3,1.1,1.2,2.8,1.9,5.2,2,.9,0,1.8-.2,2.6-.4l.3-.1.6-.2c.3-.1.5-.2.7-.4.3-.1.4-.3.6-.3q.1-.1.2-.1l.3-.2c.4-.2.6,0,.4.6,0,0-.4,1.3-1.3,2.4-.1.1-.1.2-.2.2-.1.1-.2.1-.2.2-1.1,1-2.4,1.5-4.1,1.6-.5,0-1-.1-1.4-.2s-.7-.3-1.1-.5l-.6-.5c-.4-.6-1.3-1.1-2-1.1h-1.1c-.7,0-1.1.6-.9,1.3,0,0,.4,1.3,1.3,2.3l.2.2c.1.1.2.1.2.2,1.1.9,2.7,1.5,4.7,1.5,2.8-.1,5.1-.9,6.8-2.4l.3-.3.3-.3c1.6-1.6,2.5-3.4,2.9-5.4l.2-1.3,1.3-7.7.8-4.4c.3-.7-.2-1.3-.9-1.3h0Zm-5.2,10.8l-.2.3c-.1.1-.2.2-.2.3-1,1.1-2.4,1.7-4.1,1.8-1.3-.1-2.4-.5-3.1-1.2l-.2-.2c-.7-.9-1.1-1.9-1.1-2.9,0-1.3.6-2.6,1.6-3.9l.2-.2c1-1.1,2.4-1.7,4.1-1.8.4,0,.7.1,1.1.2.3.1.6.2.8.3.5.2,1,.5,1.3.9.4.4.6.8.8,1.3.1.2.2.5.2.7.1.3.1.6.1.9,0,1.1-.5,2.3-1.3,3.5h0Z"/><circle class="cls-1" cx="19.83" cy="9" r="2.4"/><circle class="cls-1" cx="28.33" cy="9" r="2.4"/><path class="cls-1" d="m29.03,0h-15.1C8.73,0,3.73,4.3,2.83,9.5L.13,24.6c-.7,4.2,1.4,7.8,5,9,.9.3,1.8.5,2.8.5h15.1c5.2,0,10.2-4.3,11.1-9.5l1.3-7.3,1.4-7.9c.9-5.1-2.6-9.4-7.8-9.4Zm3.8,15.1c-.6.1-1.3.1-2.2.1-1.8,0-3.7-.3-5-.7-1.5-.5-3-.8-4.4-.8-2.5,0-4.8.8-6.7,2.4-2.1,1.8-3.4,4.4-3.9,7.6-.5,3.3-1.9,5.1-5,6.5-1.9-1.1-2.9-3.3-2.5-5.7l2.7-15c.6-3.6,4-6.5,7.6-6.5h15.1c3.5,0,5.9,2.9,5.3,6.4,0,0-1,5.7-1,5.7Z"/></g></svg>