<svg width="184" height="34" viewBox="0 0 184 34" fill="none" xmlns="http://www.w3.org/2000/svg">
<g clip-path="url(#clip0_305_3196)">
<path d="M180.02 23.7357C180.173 23.7348 180.324 23.7675 180.463 23.8316C180.603 23.8956 180.726 23.9893 180.825 24.1062C180.924 24.2231 180.996 24.3603 181.036 24.508C181.076 24.6558 181.083 24.8106 181.057 24.9614L180.774 26.3757C180.704 26.7234 180.515 27.0359 180.24 27.2595C179.965 27.4832 179.62 27.604 179.266 27.6014H178.2C178.047 27.6023 177.896 27.5696 177.756 27.5056C177.617 27.4415 177.494 27.3478 177.395 27.2309C177.296 27.114 177.224 26.9769 177.184 26.8291C177.144 26.6813 177.137 26.5266 177.163 26.3757L177.446 24.9614C177.509 24.6277 177.683 24.3252 177.94 24.1027C178.197 23.8803 178.521 23.751 178.86 23.7357H180.02ZM180.397 8.08414C180.46 7.75045 180.634 7.4479 180.891 7.22545C181.148 7.00301 181.472 6.87369 181.811 6.85842H182.914C183.067 6.85753 183.219 6.89026 183.358 6.95428C183.497 7.0183 183.62 7.11206 183.719 7.22895C183.818 7.34583 183.89 7.48299 183.93 7.63076C183.971 7.77852 183.978 7.93329 183.952 8.08414L181.689 20.7185C181.625 21.0522 181.451 21.3548 181.195 21.5772C180.938 21.7997 180.614 21.929 180.274 21.9442H179.143C178.99 21.9451 178.838 21.9124 178.699 21.8484C178.56 21.7844 178.437 21.6906 178.338 21.5737C178.239 21.4568 178.167 21.3197 178.127 21.1719C178.087 21.0241 178.08 20.8694 178.106 20.7185L180.397 8.08414Z" fill="#E05B4E"/>
<path d="M46.0397 6.76422C46.3989 6.78005 46.7469 6.89384 47.0461 7.09327C47.3452 7.29271 47.5841 7.57018 47.7369 7.89565L50.1883 13.9299C50.4711 14.5899 51.0369 14.6842 51.414 14.1185L57.0711 7.6128C57.6384 7.07643 58.3683 6.74462 59.1454 6.66994H61.974C62.1271 6.66906 62.2786 6.70178 62.4176 6.7658C62.5567 6.82983 62.6801 6.92359 62.779 7.04047C62.8779 7.15735 62.9499 7.29451 62.99 7.44227C63.0302 7.59004 63.0374 7.7448 63.0112 7.89565L59.8054 26.2814C59.7421 26.6151 59.568 26.9176 59.3113 27.14C59.0547 27.3625 58.7304 27.4918 58.3911 27.5071H56.8826C56.7295 27.508 56.578 27.4752 56.4389 27.4112C56.2999 27.3472 56.1765 27.2534 56.0776 27.1366C55.9787 27.0197 55.9067 26.8825 55.8665 26.7347C55.8264 26.587 55.8192 26.4322 55.8454 26.2814L58.2969 13.5528C58.3911 12.8928 58.1083 12.7042 57.6369 13.2699L51.9797 19.1157C51.4043 19.6252 50.673 19.9244 49.9054 19.9642H49.3397C48.9805 19.9484 48.6325 19.8346 48.3334 19.6352C48.0342 19.4357 47.7953 19.1583 47.6426 18.8328L45.3797 13.5528C45.0969 12.8928 44.814 12.9871 44.7197 13.6471L42.6454 26.2814C42.5821 26.6151 42.408 26.9176 42.1513 27.14C41.8947 27.3625 41.5704 27.4918 41.2311 27.5071H39.7226C39.5671 27.5122 39.4125 27.4826 39.2699 27.4204C39.1273 27.3582 39.0003 27.2651 38.8983 27.1477C38.7962 27.0303 38.7216 26.8916 38.6799 26.7417C38.6382 26.5919 38.6304 26.4346 38.6571 26.2814L41.8629 7.98994C41.9262 7.65625 42.1003 7.3537 42.357 7.13126C42.6136 6.90882 42.9378 6.77949 43.2771 6.76422H46.0397ZM103.177 11.9499C103.33 11.9491 103.481 11.9818 103.62 12.0458C103.76 12.1098 103.883 12.2036 103.982 12.3205C104.081 12.4374 104.153 12.5745 104.193 12.7223C104.233 12.87 104.24 13.0248 104.214 13.1757L101.829 26.2814C101.765 26.6151 101.591 26.9176 101.334 27.14C101.078 27.3625 100.754 27.4918 100.414 27.5071H99.3772C99.224 27.508 99.0726 27.4752 98.9335 27.4112C98.7944 27.3472 98.6711 27.2534 98.5722 27.1366C98.4733 27.0197 98.4012 26.8825 98.3611 26.7347C98.321 26.587 98.3138 26.4322 98.34 26.2814L100.697 13.1757C100.76 12.842 100.935 12.5394 101.191 12.317C101.448 12.0945 101.772 11.9652 102.111 11.9499H103.177ZM101.574 7.98994C101.637 7.65625 101.811 7.3537 102.068 7.13126C102.325 6.90882 102.649 6.77949 102.988 6.76422H104.025C104.179 6.76334 104.33 6.79607 104.469 6.86009C104.608 6.92411 104.731 7.01787 104.83 7.13475C104.929 7.25164 105.001 7.3888 105.041 7.53656C105.082 7.68432 105.089 7.83909 105.063 7.98994L104.968 9.02708C104.905 9.36077 104.731 9.66332 104.474 9.88576C104.218 10.1082 103.893 10.2375 103.554 10.2528H102.517C102.364 10.2537 102.212 10.221 102.073 10.1569C101.934 10.0929 101.811 9.99915 101.712 9.88227C101.613 9.76538 101.541 9.62822 101.501 9.48046C101.461 9.3327 101.454 9.17793 101.48 9.02708L101.574 7.98994ZM77.6254 14.0242L77.4369 13.7414C77.3426 13.6471 77.2483 13.5528 77.2483 13.4585C76.594 12.8057 75.8133 12.2933 74.954 11.9529C74.0948 11.6124 73.175 11.451 72.2511 11.4785C70.93 11.5027 69.6281 11.8 68.4273 12.3517C67.2266 12.9034 66.153 13.6976 65.274 14.6842C63.6421 16.3903 62.7013 18.6414 62.634 21.0014C62.6333 22.6581 63.1509 24.2736 64.1143 25.6214C65.1514 27.1299 66.9429 27.8842 69.3943 27.9785C71.2701 27.9523 73.1004 27.3967 74.6743 26.3757C74.7686 26.2814 74.8629 26.1871 74.9571 26.1871C75.8214 25.4787 76.5829 24.6537 77.22 23.7357C77.5971 23.1699 77.4086 22.6985 76.6543 22.6985H75.24C74.5175 22.7373 73.8252 23.0011 73.26 23.4528L73.0714 23.5471H72.9771C72.6882 23.8249 72.33 24.0202 71.94 24.1128C71.2262 24.424 70.4558 24.5845 69.6772 24.5842C69.1299 24.5904 68.5864 24.4944 68.0743 24.3014C67.6564 24.1601 67.2715 23.9356 66.9429 23.6414C66.6662 23.4075 66.4414 23.1185 66.2829 22.7928L66.0943 22.4157V22.2271L66 21.6614V20.8128H77.3143C77.6536 20.7975 77.9778 20.6682 78.2345 20.4458C78.4911 20.2233 78.6652 19.9208 78.7286 19.5871V19.3985L78.9171 18.1728C79.0218 16.6723 78.5497 15.1884 77.5972 14.0242H77.6254ZM68.0083 17.9842C67.3483 17.9842 67.0654 17.5128 67.4426 16.9471C67.7943 16.4269 68.2424 15.9788 68.7626 15.6271C69.6723 15.0626 70.7104 14.7382 71.7797 14.6842C72.715 14.677 73.6205 15.0124 74.3254 15.6271C74.6077 15.8928 74.8324 16.2137 74.9854 16.5699C74.9954 16.6414 75.0285 16.7077 75.0797 16.7585C75.1254 16.9033 75.1355 17.057 75.1091 17.2065C75.0827 17.356 75.0205 17.4969 74.9279 17.6173C74.8354 17.7376 74.7151 17.8338 74.5774 17.8977C74.4396 17.9616 74.2885 17.9913 74.1369 17.9842H68.0083ZM98.0572 6.76422H97.02C96.6807 6.77949 96.3565 6.90882 96.0998 7.13126C95.8432 7.3537 95.6691 7.65625 95.6057 7.98994L95.5114 8.74422L94.9457 11.8557C94.95 11.9896 94.9109 12.1213 94.8343 12.2312C94.7577 12.3412 94.6477 12.4234 94.5205 12.4658C94.3934 12.5082 94.256 12.5084 94.1288 12.4664C94.0015 12.4244 93.8912 12.3425 93.8143 12.2328C93.5588 12.0307 93.2722 11.8715 92.9657 11.7614C92.7771 11.6671 92.5886 11.6671 92.4943 11.5728C92.3468 11.5045 92.1852 11.4722 92.0229 11.4785H91.8343C91.4312 11.3966 91.0195 11.3649 90.6086 11.3842C89.2487 11.37 87.9008 11.6393 86.6508 12.175C85.4007 12.7107 84.2761 13.5011 83.3486 14.4957C81.6409 16.2362 80.6627 18.5635 80.6143 21.0014C80.6075 22.6635 81.1365 24.2836 82.1229 25.6214C82.2171 25.7157 82.3114 25.8099 82.3114 25.9042C82.9334 26.5477 83.6815 27.0557 84.509 27.3964C85.3364 27.7371 86.2253 27.9032 87.12 27.8842C87.8838 27.8951 88.6453 27.8 89.3829 27.6014C89.4341 27.6075 89.486 27.6023 89.5349 27.586C89.5838 27.5697 89.6285 27.5427 89.6657 27.5071L90.2314 27.3185C90.6638 27.1866 91.0762 26.9963 91.4571 26.7528C91.5286 26.7428 91.5949 26.7097 91.6457 26.6585C92.1171 26.3757 92.4 26.4699 92.4 26.7528C92.4 27.0357 92.8714 27.4128 93.5314 27.4128H94.5686C94.9079 27.3975 95.2321 27.2682 95.4888 27.0458C95.7454 26.8233 95.9195 26.5208 95.9829 26.1871L97.5857 17.0414L99.1886 7.89565C99.1837 7.5971 99.063 7.31212 98.8518 7.10098C98.6407 6.88984 98.3557 6.76908 98.0572 6.76422ZM92.0229 22.5099C91.9286 22.6042 91.9286 22.6985 91.8343 22.6985C91.3533 23.2219 90.7709 23.6422 90.1227 23.934C89.4744 24.2257 88.7736 24.3828 88.0629 24.3957C87.6857 24.3957 87.4029 24.3014 87.12 24.3014C86.863 24.2228 86.6111 24.1283 86.3657 24.0185C85.8981 23.7895 85.4813 23.4689 85.14 23.0757C84.83 22.7224 84.6043 22.3032 84.48 21.8499C84.3252 21.3954 84.2611 20.9149 84.2914 20.4357C84.3627 19.1302 84.8976 17.8931 85.8 16.9471C85.8943 16.8528 85.8943 16.7585 85.9886 16.7585C86.9965 15.7646 88.3449 15.1915 89.76 15.1557C90.2628 15.1289 90.7657 15.2073 91.2365 15.3859C91.7073 15.5645 92.1357 15.8393 92.4943 16.1928L92.6829 16.3814C93.2825 17.1261 93.5848 18.0667 93.5314 19.0214C93.3732 20.2996 92.8604 21.508 92.0511 22.5099H92.0229Z" fill="#4F9BD1"/>
<path d="M122.317 16.8528L122.034 16.6642C121.972 16.6256 121.92 16.5737 121.881 16.5123C121.842 16.451 121.817 16.3817 121.808 16.3095C121.799 16.2372 121.806 16.1639 121.829 16.0948C121.852 16.0257 121.89 15.9625 121.94 15.9099C122.562 15.4631 123.078 14.8834 123.448 14.2128L123.543 13.9299C123.964 13.0456 124.189 12.0807 124.203 11.1013C124.196 10.5357 124.076 9.97712 123.849 9.45883C123.622 8.94055 123.294 8.47309 122.883 8.0842L122.694 7.89563C121.641 7.08477 120.346 6.6529 119.017 6.66992H109.777C109.438 6.68519 109.114 6.81451 108.857 7.03695C108.6 7.2594 108.426 7.56195 108.363 7.89563L106.76 17.0413L105.157 26.1871C105.131 26.3379 105.138 26.4927 105.178 26.6404C105.218 26.7882 105.29 26.9254 105.389 27.0422C105.488 27.1591 105.611 27.2529 105.751 27.3169C105.89 27.3809 106.041 27.4137 106.194 27.4128H116.848C117.832 27.4459 118.809 27.2402 119.696 26.8132C120.582 26.3863 121.352 25.7509 121.94 24.9613C123.197 23.5987 123.902 21.8178 123.92 19.9642C123.948 19.1293 123.718 18.306 123.26 17.6071C122.967 17.3303 122.651 17.078 122.317 16.8528ZM111.568 11.5728C111.632 11.2391 111.806 10.9365 112.063 10.7141C112.319 10.4917 112.643 10.3623 112.983 10.3471H116.66C117.386 10.3671 118.11 10.4301 118.828 10.5356C119.097 10.6229 119.352 10.7501 119.583 10.9128C119.769 11.0623 119.924 11.2479 120.037 11.4585C120.151 11.6691 120.221 11.9003 120.243 12.1385C120.229 12.9117 119.926 13.6518 119.394 14.2128C119.049 14.5552 118.63 14.8133 118.168 14.9671C117.356 15.0767 116.537 15.1397 115.717 15.1556H112.2C112.047 15.1565 111.896 15.1238 111.757 15.0598C111.617 14.9957 111.494 14.902 111.395 14.7851C111.296 14.6682 111.224 14.5311 111.184 14.3833C111.144 14.2355 111.137 14.0808 111.163 13.9299L111.568 11.5728ZM110.531 23.9242C110.378 23.9251 110.227 23.8924 110.088 23.8283C109.949 23.7643 109.825 23.6706 109.726 23.5537C109.627 23.4368 109.555 23.2996 109.515 23.1519C109.475 23.0041 109.468 22.8493 109.494 22.6985L109.966 20.1528L110.06 19.6813C110.123 19.3477 110.297 19.0451 110.554 18.8227C110.811 18.6002 111.135 18.4709 111.474 18.4556H114.208C115.027 18.44 115.845 18.4714 116.66 18.5499L117.98 18.7385H118.357C118.546 18.8328 118.734 18.8328 118.828 18.9271L118.923 19.0213C119.158 19.2327 119.34 19.4964 119.455 19.7912C119.57 20.086 119.613 20.4037 119.583 20.7185C119.571 21.5201 119.27 22.2904 118.734 22.8871C118.64 22.9813 118.64 23.0756 118.546 23.0756L118.451 23.1699H118.357C117.918 23.4302 117.441 23.621 116.943 23.7356C116.13 23.8453 115.311 23.9083 114.491 23.9242H110.531ZM142.023 11.9499H140.986C140.678 11.9244 140.371 12.0037 140.114 12.1748C139.857 12.346 139.666 12.5991 139.571 12.8928C139.477 13.3642 139.194 13.3642 138.817 13.0813L138.628 12.8928C138.628 12.7985 138.346 12.5156 137.686 12.1385L137.497 12.0442C136.639 11.6625 135.699 11.5005 134.763 11.5728C131.746 11.7613 129.388 12.7985 127.786 14.8728C126.291 16.6569 125.4 18.8683 125.24 21.1899C125.218 22.8834 125.748 24.538 126.748 25.9042C126.843 25.9985 126.937 26.0928 126.937 26.1871C128.068 27.4128 129.671 27.9785 132.028 28.0728C132.823 28.0833 133.616 27.9882 134.386 27.7899L134.668 27.6956L135.234 27.5071C135.38 27.4194 135.539 27.3557 135.706 27.3185L136.177 27.0356L136.366 26.9413C136.554 26.7528 136.743 26.6585 136.837 26.4699C137.12 26.2813 137.214 26.4699 137.214 26.8471C137.12 27.4128 137.591 27.8842 138.346 27.8842H139.383C139.722 27.8689 140.046 27.7396 140.303 27.5172C140.56 27.2947 140.734 26.9922 140.797 26.6585L141.928 20.0585L143.06 13.4585C143.154 12.5156 142.683 11.9499 142.023 11.9499ZM136.554 22.5099L136.366 22.6985C135.905 23.1903 135.351 23.5853 134.736 23.8605C134.12 24.1357 133.457 24.2856 132.783 24.3013C132.284 24.3073 131.789 24.2098 131.33 24.0151C130.871 23.8203 130.457 23.5326 130.114 23.1699L129.926 22.9813C129.33 22.2656 128.997 21.3671 128.983 20.4356C129.033 19.0696 129.568 17.766 130.492 16.7585C130.586 16.6642 130.586 16.5699 130.68 16.5699C131.688 15.576 133.037 15.0029 134.452 14.9671C134.933 14.9554 135.411 15.0508 135.852 15.2465C136.292 15.4421 136.683 15.7331 136.997 16.0985L137.186 16.2871C137.782 17.0029 138.115 17.9014 138.129 18.8328C138.032 20.2006 137.477 21.496 136.554 22.5099ZM156.92 13.2699C156.826 13.1756 156.826 13.0813 156.731 13.0813C156.285 12.6101 155.742 12.24 155.14 11.996C154.539 11.7521 153.892 11.6399 153.243 11.6671C152.331 11.6535 151.429 11.8469 150.603 12.2328L150.037 12.5156C149.868 12.5885 149.709 12.6836 149.566 12.7985C149.517 12.8523 149.449 12.8859 149.377 12.8928L149.094 13.0813C148.717 13.3642 148.528 13.2699 148.528 12.8928C148.528 12.5156 148.151 12.0442 147.491 12.0442H146.454C146.115 12.0595 145.791 12.1888 145.534 12.4112C145.277 12.6337 145.103 12.9362 145.04 13.2699L143.908 19.7756L142.777 26.2813C142.751 26.4322 142.758 26.587 142.798 26.7347C142.838 26.8825 142.91 27.0196 143.009 27.1365C143.108 27.2534 143.231 27.3472 143.371 27.4112C143.51 27.4752 143.661 27.5079 143.814 27.5071H144.851C145.191 27.4918 145.515 27.3625 145.772 27.14C146.028 26.9176 146.202 26.615 146.266 26.2813C146.266 26.2813 146.643 23.8299 146.926 22.3213C146.919 22.2702 146.925 22.2182 146.941 22.1693C146.957 22.1204 146.984 22.0757 147.02 22.0385L147.114 21.5671C147.208 21.0956 147.303 20.7185 147.397 20.3413C147.455 19.824 147.582 19.3167 147.774 18.8328C147.97 17.8506 148.426 16.9389 149.094 16.1928C149.258 16.0086 149.449 15.8497 149.66 15.7213C149.844 15.5417 150.071 15.4119 150.32 15.3442C150.793 15.1198 151.306 14.9916 151.828 14.9671C152.503 14.9373 153.168 15.1367 153.714 15.5328C153.946 15.7845 154.137 16.0708 154.28 16.3813C154.402 16.8107 154.466 17.2548 154.468 17.7013C154.48 18.0184 154.448 18.3356 154.374 18.6442C154.349 18.9957 154.286 19.3435 154.186 19.6813C154.091 20.5299 153.903 21.4728 153.714 22.5099L153.243 25.3385L153.054 26.2813C153.028 26.4322 153.035 26.587 153.075 26.7347C153.115 26.8825 153.187 27.0196 153.286 27.1365C153.385 27.2534 153.509 27.3472 153.648 27.4112C153.787 27.4752 153.938 27.5079 154.091 27.5071H155.223C155.527 27.5129 155.825 27.4257 156.078 27.2571C156.33 27.0886 156.526 26.8468 156.637 26.5642L156.731 25.9042C156.826 25.2442 157.014 24.5842 157.108 23.8299L157.486 21.5671C157.58 20.8128 157.768 20.0585 157.863 19.3985C157.957 18.7385 158.051 18.0785 158.146 17.5128L158.24 16.9471V16.8528C158.24 16.5699 158.334 16.2871 158.334 16.0985C158.017 15.0862 157.539 14.1313 156.92 13.2699ZM175.966 11.7613H175.211C174.904 11.7358 174.597 11.8151 174.34 11.9863C174.083 12.1575 173.892 12.4105 173.797 12.7042C173.703 13.1756 173.42 13.1756 173.043 12.8928C172.948 12.7985 172.854 12.7042 172.76 12.7042L172.666 12.6099C172.571 12.5156 172.383 12.4213 172.194 12.2328C171.966 12.1227 171.745 11.9967 171.534 11.8556L170.874 11.5728H170.78C170.635 11.4966 170.471 11.4638 170.308 11.4785C169.782 11.3638 169.245 11.3006 168.706 11.2899C167.339 11.2579 165.983 11.5386 164.741 12.1105C163.499 12.6824 162.404 13.5304 161.54 14.5899C160.056 16.2612 159.19 18.3914 159.088 20.6242C159.068 22.2885 159.598 23.9128 160.597 25.2442C160.691 25.3385 160.786 25.4328 160.786 25.5271C161.434 26.1544 162.203 26.6446 163.045 26.9686C163.888 27.2926 164.787 27.4436 165.688 27.4128C166.518 27.3868 167.341 27.2601 168.14 27.0356L168.423 26.9413L168.988 26.7528C169.237 26.6851 169.464 26.5553 169.648 26.3756C169.931 26.2813 170.026 26.0928 170.214 26.0928C170.403 26.0928 170.308 25.9985 170.403 25.9985L170.686 25.8099C171.063 25.6213 171.251 25.8099 171.063 26.3756C170.787 27.1946 170.372 27.96 169.837 28.6385C169.743 28.7328 169.743 28.8271 169.648 28.8271C169.554 28.8271 169.46 28.9213 169.46 29.0156C168.395 29.9669 167.022 30.5024 165.594 30.5242C165.148 30.5145 164.705 30.4512 164.274 30.3356C163.912 30.2181 163.564 30.0599 163.237 29.8642L162.671 29.3928C162.451 29.0936 162.168 28.8459 161.843 28.6668C161.517 28.4878 161.156 28.3816 160.786 28.3556H159.748C159.605 28.3633 159.465 28.4038 159.339 28.474C159.214 28.5442 159.106 28.6421 159.024 28.7605C158.942 28.8788 158.888 29.0143 158.867 29.1565C158.845 29.2988 158.857 29.4441 158.9 29.5813C159.167 30.3755 159.583 31.1114 160.126 31.7499L160.314 31.9385C160.408 32.0328 160.503 32.0328 160.503 32.1271C161.772 33.0964 163.338 33.5961 164.934 33.5413C167.271 33.5627 169.54 32.7617 171.346 31.2785L171.628 30.9956L171.911 30.7128C173.32 29.3335 174.274 27.5572 174.646 25.6213L174.834 24.3956L176.06 17.1356L176.814 12.9871C176.88 12.8505 176.908 12.6991 176.896 12.5482C176.884 12.3973 176.832 12.2522 176.746 12.1277C176.66 12.0032 176.542 11.9037 176.405 11.8394C176.268 11.7751 176.116 11.7481 175.966 11.7613ZM171.063 21.9442L170.874 22.2271C170.78 22.3213 170.686 22.4156 170.686 22.5099C170.186 23.0349 169.587 23.4552 168.923 23.7466C168.26 24.0379 167.545 24.1945 166.82 24.2071C165.743 24.1852 164.708 23.7846 163.897 23.0756L163.708 22.8871C163.068 22.1166 162.703 21.1543 162.671 20.1528C162.755 18.7943 163.286 17.5016 164.18 16.4756L164.368 16.2871C164.868 15.7621 165.467 15.3418 166.131 15.0504C166.795 14.759 167.51 14.6025 168.234 14.5899C168.587 14.6068 168.935 14.6702 169.271 14.7785C169.528 14.8571 169.78 14.9515 170.026 15.0613C170.503 15.2295 170.926 15.5225 171.251 15.9099C171.589 16.2586 171.847 16.6769 172.006 17.1356C172.112 17.341 172.176 17.5653 172.194 17.7956C172.272 18.0714 172.304 18.3581 172.288 18.6442C172.206 19.8393 171.78 20.9851 171.063 21.9442Z" fill="#E05B4E"/>
<path d="M18.697 11.2899C19.9467 11.2899 20.9598 10.2768 20.9598 9.02703C20.9598 7.77728 19.9467 6.76416 18.697 6.76416C17.4472 6.76416 16.4341 7.77728 16.4341 9.02703C16.4341 10.2768 17.4472 11.2899 18.697 11.2899Z" fill="#4F9BD1"/>
<path d="M26.7111 11.2899C27.9609 11.2899 28.974 10.2768 28.974 9.02703C28.974 7.77728 27.9609 6.76416 26.7111 6.76416C25.4614 6.76416 24.4482 7.77728 24.4482 9.02703C24.4482 10.2768 25.4614 11.2899 26.7111 11.2899Z" fill="#4F9BD1"/>
<path d="M27.3426 0.541261H13.1338C10.6373 0.643626 8.24785 1.58262 6.34961 3.20725C4.45136 4.83187 3.15467 7.0477 2.66806 9.4984L0.122348 23.7355C-0.537652 27.6955 1.44235 31.0898 4.83663 32.2213C5.68473 32.5225 6.5767 32.6818 7.47663 32.6927H21.6855C24.1819 32.5903 26.5714 31.6513 28.4697 30.0267C30.3679 28.4021 31.6646 26.1862 32.1512 23.7355L33.3769 16.8527L34.6969 9.40412C34.9338 8.31954 34.9204 7.19526 34.6577 6.11664C34.3951 5.03801 33.8902 4.03341 33.1813 3.17909C32.4724 2.32477 31.5782 1.64321 30.5665 1.18615C29.5548 0.729086 28.4523 0.508542 27.3426 0.541261ZM30.9255 14.7784C30.2376 14.8638 29.544 14.8953 28.8512 14.8727C27.2568 14.872 25.6702 14.6499 24.1369 14.2127C22.8028 13.7428 21.4025 13.4882 19.9883 13.4584C17.6793 13.4298 15.4369 14.233 13.6712 15.7213C11.6192 17.5865 10.3129 20.1323 9.99406 22.887C9.52263 25.9984 8.20263 27.6955 5.27978 29.0155C4.38038 28.4724 3.67103 27.6644 3.24902 26.7022C2.827 25.74 2.713 24.6708 2.92263 23.6413L5.46835 9.4984C5.78989 7.81014 6.67832 6.28229 7.98657 5.16779C9.29482 4.05329 10.9444 3.41897 12.6623 3.36983H26.8995C27.654 3.34974 28.4032 3.50146 29.0904 3.81353C29.7776 4.12559 30.3849 4.58983 30.8663 5.17113C31.3476 5.75244 31.6906 6.43559 31.8691 7.16893C32.0476 7.90227 32.057 8.6666 31.8966 9.40412L30.9255 14.7784Z" fill="#4F9BD1"/>
</g>
<defs>
<clipPath id="clip0_305_3196">
<rect width="183.999" height="33" fill="white" transform="translate(0 0.541504)"/>
</clipPath>
</defs>
</svg>
